<svg width="328" height="63" viewBox="0 0 328 63" fill="none" xmlns="http://www.w3.org/2000/svg">
<path d="M23.7223 33.3499C23.7223 32.4219 23.5483 31.5519 23.2003 30.7399C22.891 29.8892 22.427 29.1546 21.8083 28.5359C21.1896 27.9172 20.455 27.4339 19.6043 27.0859C18.7923 26.6992 17.903 26.5059 16.9363 26.5059C16.0083 26.5059 15.1383 26.6799 14.3263 27.0279C13.5143 27.3759 12.799 27.8592 12.1803 28.4779C11.6003 29.0966 11.117 29.8312 10.7303 30.6819C10.3823 31.4939 10.2083 32.3639 10.2083 33.2919C10.2083 34.2199 10.3823 35.0899 10.7303 35.9019C11.0783 36.7139 11.5616 37.4292 12.1803 38.0479C12.799 38.6279 13.5143 39.1112 14.3263 39.4979C15.177 39.8459 16.0663 40.0199 16.9943 40.0199C17.9223 40.0199 18.7923 39.8459 19.6043 39.4979C20.4163 39.1499 21.1123 38.6666 21.6923 38.0479C22.311 37.4292 22.7943 36.7139 23.1423 35.9019C23.529 35.0899 23.7223 34.2392 23.7223 33.3499ZM10.4983 62.9879H0.000297032V18.3859H10.4983V21.6919C12.741 18.8692 15.7956 17.4579 19.6623 17.4579C21.789 17.4579 23.761 17.8832 25.5783 18.7339C27.4343 19.5459 29.039 20.6672 30.3923 22.0979C31.7456 23.5286 32.7896 25.2106 33.5243 27.1439C34.2976 29.0772 34.6843 31.1459 34.6843 33.3499C34.6843 35.5539 34.2976 37.6032 33.5243 39.4979C32.7896 41.3926 31.7456 43.0552 30.3923 44.4859C29.0776 45.9166 27.5116 47.0379 25.6943 47.8499C23.877 48.6619 21.905 49.0679 19.7783 49.0679C16.0663 49.0679 12.973 47.7919 10.4983 45.2399V62.9879ZM39.5083 -0.000109911H50.0063V22.1559C51.4369 20.4159 52.8869 19.2559 54.3563 18.6759C55.8256 18.0572 57.5463 17.7479 59.5183 17.7479C63.2689 17.7479 66.0916 18.7919 67.9863 20.8799C69.9196 22.9292 70.8863 25.7132 70.8863 29.2319V48.1399H60.3883V33.1179C60.3883 31.6099 60.2723 30.3919 60.0403 29.4639C59.8083 28.5359 59.4216 27.8206 58.8803 27.3179C57.9523 26.5059 56.8309 26.0999 55.5163 26.0999C53.7376 26.0999 52.3649 26.6412 51.3983 27.7239C50.4703 28.7679 50.0063 30.2759 50.0063 32.2479V48.1399H39.5083V-0.000109911ZM86.7819 33.1179C86.7819 34.1232 86.9559 35.0512 87.3039 35.9019C87.6906 36.7139 88.1739 37.4292 88.7539 38.0479C89.3726 38.6666 90.0879 39.1499 90.8999 39.4979C91.7506 39.8459 92.6399 40.0199 93.5679 40.0199C94.4959 40.0199 95.3659 39.8459 96.1779 39.4979C97.0286 39.1499 97.7439 38.6666 98.3239 38.0479C98.9426 37.4292 99.4259 36.7139 99.7739 35.9019C100.161 35.0512 100.354 34.1426 100.354 33.1759C100.354 32.2479 100.161 31.3779 99.7739 30.5659C99.4259 29.7152 98.9426 28.9806 98.3239 28.3619C97.7439 27.7432 97.0286 27.2599 96.1779 26.9119C95.3659 26.5639 94.4959 26.3899 93.5679 26.3899C92.6399 26.3899 91.7506 26.5639 90.8999 26.9119C90.0879 27.2599 89.3726 27.7432 88.7539 28.3619C88.1739 28.9806 87.6906 29.6959 87.3039 30.5079C86.9559 31.3199 86.7819 32.1899 86.7819 33.1179ZM75.7039 33.0019C75.7039 30.7979 76.1486 28.7486 77.0379 26.8539C77.9272 24.9206 79.1646 23.2579 80.7499 21.8659C82.3352 20.4352 84.2106 19.3139 86.3759 18.5019C88.5799 17.6899 90.9772 17.2839 93.5679 17.2839C96.1199 17.2839 98.4786 17.6899 100.644 18.5019C102.848 19.2752 104.743 20.3772 106.328 21.8079C107.952 23.1999 109.209 24.8819 110.098 26.8539C110.987 28.7872 111.432 30.9332 111.432 33.2919C111.432 35.6506 110.968 37.8159 110.04 39.7879C109.151 41.7212 107.913 43.4032 106.328 44.8339C104.743 46.2259 102.829 47.3086 100.586 48.0819C98.3819 48.8552 95.9846 49.2419 93.3939 49.2419C90.8419 49.2419 88.4832 48.8552 86.3179 48.0819C84.1526 47.3086 82.2772 46.2066 80.6919 44.7759C79.1452 43.3452 77.9272 41.6439 77.0379 39.6719C76.1486 37.6612 75.7039 35.4379 75.7039 33.0019ZM116.315 18.3859H126.813V22.1559C128.244 20.4159 129.694 19.2559 131.163 18.6759C132.633 18.0572 134.353 17.7479 136.325 17.7479C138.413 17.7479 140.192 18.0959 141.661 18.7919C143.169 19.4492 144.445 20.3966 145.489 21.6339C146.34 22.6392 146.92 23.7606 147.229 24.9979C147.539 26.2352 147.693 27.6466 147.693 29.2319V48.1399H137.195V33.1179C137.195 31.6486 137.079 30.4692 136.847 29.5799C136.654 28.6519 136.287 27.9172 135.745 27.3759C135.281 26.9119 134.759 26.5832 134.179 26.3899C133.599 26.1966 132.981 26.0999 132.323 26.0999C130.545 26.0999 129.172 26.6412 128.205 27.7239C127.277 28.7679 126.813 30.2759 126.813 32.2479V48.1399H116.315V18.3859ZM175.421 28.9419C175.073 27.4726 174.358 26.2932 173.275 25.4039C172.192 24.5146 170.878 24.0699 169.331 24.0699C167.707 24.0699 166.373 24.4952 165.329 25.3459C164.324 26.1966 163.686 27.3952 163.415 28.9419H175.421ZM163.125 35.0319C163.125 39.5559 165.252 41.8179 169.505 41.8179C171.786 41.8179 173.507 40.8899 174.667 39.0339H184.817C182.768 45.8392 177.644 49.2419 169.447 49.2419C166.934 49.2419 164.633 48.8746 162.545 48.1399C160.457 47.3666 158.659 46.2839 157.151 44.8919C155.682 43.4999 154.541 41.8372 153.729 39.9039C152.917 37.9706 152.511 35.8052 152.511 33.4079C152.511 30.9332 152.898 28.7099 153.671 26.7379C154.444 24.7272 155.546 23.0259 156.977 21.6339C158.408 20.2419 160.128 19.1786 162.139 18.4439C164.188 17.6706 166.489 17.2839 169.041 17.2839C171.554 17.2839 173.816 17.6706 175.827 18.4439C177.838 19.1786 179.539 20.2612 180.931 21.6919C182.323 23.1226 183.386 24.8819 184.121 26.9699C184.856 29.0192 185.223 31.3392 185.223 33.9299V35.0319H163.125Z" fill="white"/>
<path d="M202.176 27.1439V48.1399H191.678V27.1439H188.198V18.3859H191.678V9.45389H202.176V18.3859H208.15V27.1439H202.176ZM233.253 28.9419C232.905 27.4726 232.19 26.2932 231.107 25.4039C230.025 24.5146 228.71 24.0699 227.163 24.0699C225.539 24.0699 224.205 24.4952 223.161 25.3459C222.156 26.1966 221.518 27.3952 221.247 28.9419H233.253ZM220.957 35.0319C220.957 39.5559 223.084 41.8179 227.337 41.8179C229.619 41.8179 231.339 40.8899 232.499 39.0339H242.649C240.6 45.8392 235.477 49.2419 227.279 49.2419C224.766 49.2419 222.465 48.8746 220.377 48.1399C218.289 47.3666 216.491 46.2839 214.983 44.8919C213.514 43.4999 212.373 41.8372 211.561 39.9039C210.749 37.9706 210.343 35.8052 210.343 33.4079C210.343 30.9332 210.73 28.7099 211.503 26.7379C212.277 24.7272 213.379 23.0259 214.809 21.6339C216.24 20.2419 217.961 19.1786 219.971 18.4439C222.021 17.6706 224.321 17.2839 226.873 17.2839C229.387 17.2839 231.649 17.6706 233.659 18.4439C235.67 19.1786 237.371 20.2612 238.763 21.6919C240.155 23.1226 241.219 24.8819 241.953 26.9699C242.688 29.0192 243.055 31.3392 243.055 33.9299V35.0319H220.957ZM270.342 28.0139C268.525 26.7766 266.688 26.1579 264.832 26.1579C263.827 26.1579 262.879 26.3319 261.99 26.6799C261.139 27.0279 260.385 27.5306 259.728 28.1879C259.071 28.8066 258.549 29.5606 258.162 30.4499C257.814 31.3006 257.64 32.2672 257.64 33.3499C257.64 34.3939 257.814 35.3606 258.162 36.2499C258.549 37.1006 259.051 37.8546 259.67 38.5119C260.327 39.1306 261.101 39.6139 261.99 39.9619C262.879 40.3099 263.827 40.4839 264.832 40.4839C266.804 40.4839 268.641 39.8072 270.342 38.4539V47.3859C267.751 48.5072 265.296 49.0679 262.976 49.0679C260.811 49.0679 258.742 48.7006 256.77 47.9659C254.837 47.2312 253.116 46.1872 251.608 44.8339C250.139 43.4419 248.959 41.7986 248.07 39.9039C247.181 37.9706 246.736 35.8246 246.736 33.4659C246.736 31.1072 247.161 28.9612 248.012 27.0279C248.863 25.0559 250.023 23.3739 251.492 21.9819C252.961 20.5512 254.701 19.4492 256.712 18.6759C258.761 17.8639 260.946 17.4579 263.266 17.4579C265.818 17.4579 268.177 17.9992 270.342 19.0819V28.0139ZM276.642 -0.000109911H287.14V22.1559C288.571 20.4159 290.021 19.2559 291.49 18.6759C292.96 18.0572 294.68 17.7479 296.652 17.7479C300.403 17.7479 303.226 18.7919 305.12 20.8799C307.054 22.9292 308.02 25.7132 308.02 29.2319V48.1399H297.522V33.1179C297.522 31.6099 297.406 30.3919 297.174 29.4639C296.942 28.5359 296.556 27.8206 296.014 27.3179C295.086 26.5059 293.965 26.0999 292.65 26.0999C290.872 26.0999 289.499 26.6412 288.532 27.7239C287.604 28.7679 287.14 30.2759 287.14 32.2479V48.1399H276.642V-0.000109911Z" fill="white"/>
<path d="M313.476 42.5719C313.476 41.6439 313.65 40.7739 313.998 39.9619C314.346 39.1112 314.829 38.3766 315.448 37.7579C316.066 37.1392 316.782 36.6559 317.594 36.3079C318.444 35.9599 319.334 35.7859 320.262 35.7859C321.19 35.7859 322.06 35.9599 322.872 36.3079C323.722 36.6559 324.457 37.1392 325.076 37.7579C325.694 38.3766 326.178 39.1112 326.526 39.9619C326.874 40.7739 327.048 41.6439 327.048 42.5719C327.048 43.4999 326.874 44.3892 326.526 45.2399C326.178 46.0519 325.694 46.7672 325.076 47.3859C324.457 48.0046 323.722 48.4879 322.872 48.8359C322.06 49.1839 321.19 49.3579 320.262 49.3579C319.334 49.3579 318.444 49.1839 317.594 48.8359C316.782 48.4879 316.066 48.0046 315.448 47.3859C314.829 46.7672 314.346 46.0519 313.998 45.2399C313.65 44.3892 313.476 43.4999 313.476 42.5719Z" fill="#FF7A2F"/>
</svg>
