<svg xmlns="http://www.w3.org/2000/svg" width="24" height="24" viewBox="0 0 24 24" fill="currentColor">
  <path d="M17.05 12.04c-.03-2.99 2.44-4.43 2.55-4.5-1.39-2.04-3.56-2.32-4.33-2.35-1.84-.19-3.59 1.08-4.52 1.08-.94 0-2.39-1.06-3.93-1.03-2.02.03-3.88 1.18-4.92 2.98-2.1 3.64-.54 9.03 1.51 11.98 1 1.44 2.19 3.05 3.75 3 1.52-.06 2.09-.97 3.93-.97 1.83 0 2.35.97 3.95.94 1.63-.03 2.66-1.47 3.66-2.91 1.15-1.67 1.63-3.29 1.65-3.38-.04-.01-3.17-1.22-3.2-4.84-.02-3.02 2.47-4.47 2.58-4.54-1.41-2.07-3.61-2.3-4.38-2.35z"/>
  <path d="M14.16 3.65c.81-.98 1.36-2.34 1.21-3.7-1.17.05-2.58.78-3.42 1.76-.75.87-1.42 2.27-1.24 3.6 1.3.1 2.64-.67 3.45-1.66z"/>
</svg>
